<svg xmlns="http://www.w3.org/2000/svg" width="48" height="48" viewBox="0 0 48 48" fill="none">
  <rect width="48" height="48" rx="24" fill="#2A2D3A"/>
  <path d="M24 16C22.9391 16 21.9217 16.4214 21.1716 17.1716C20.4214 17.9217 20 18.9391 20 20C20 21.0609 20.4214 22.0783 21.1716 22.8284C21.9217 23.5786 22.9391 24 24 24C25.0609 24 26.0783 23.5786 26.8284 22.8284C27.5786 22.0783 28 21.0609 28 20C28 18.9391 27.5786 17.9217 26.8284 17.1716C26.0783 16.4214 25.0609 16 24 16ZM24 28C20.636 28 14 29.686 14 33V36H34V33C34 29.686 27.364 28 24 28Z" fill="#4A5568"/>
</svg> 